<?xml version="1.0" encoding="UTF-8"?>
<svg id="_Слой_1" data-name="Слой_1" xmlns="http://www.w3.org/2000/svg" version="1.1" viewBox="0 0 1080 1080">
  <!-- Generator: Adobe Illustrator 29.5.0, SVG Export Plug-In . SVG Version: 2.1.0 Build 137)  -->
  <path d="M741.58,528.11c-7.74,11.17-11.83,28.17-11.51,43.72-10.64-8.5-21.2-17.02-31.61-25.59-.71-.58-1.51-1.05-2.39-1.42-3.42-2.34-17.57-4.16-21.24-2.79-20.72,7.69-30.86,20.84-48.29,31.68-17.97,11.18-47.45,15.05-71.35,21.83.32-2.53.63-5.07.95-7.6.28-2.3.57-4.6.87-6.9.03-.27.12-.55.21-.81-1.98.04-3.38-.13-1.34-1.05,2.48-1.12,1.78-.16,1.34,1.05,1.65-.02,3.69-.2,4.47-.2,8.09-.01,16.19-.14,24.27-.39,6.6-.21,13.36-.25,19.36-2.18,12.84-4.12,14.96-14.66,10.63-22.46-11.75-21.11-58.09-21.54-87.15-21.81-21.8-.2-42.03,1.1-63.84,3.4-18.96,2-40.1,5.67-37.98,20.26,1.14,7.84,8.35,13.2,21.15,13.78,11.97.55,23.45-3.53,34.9-5.09,8.53-1.17,18.75-.05,27.39,1.17,3.42.48,5.88,1.34,7.54,3.59,1.45,1.96.53,3.16-.34,4.82-.26.5-2.24,2.6-4.18,4.07-.98.74-4.69,2.96-13.61,3.38-16.84.8-35.29.37-51.94-1.35-8.77-.91-18.97-2.43-29.86-4.05-.34-4.49-1.02-8.96-2.31-13.38-1.83-6.28-5.64-16.84-12.6-19.97-7.38-3.31-17.18-6.04-25.42-6.37-7.06-.28-17.81,2.24-24.49,4.51-8.33,2.84-12.73,13.68-13.24,19.89-.21,2.56-.13,5.77.01,9.29-3.87.31-7.59.8-11.13,1.48-9.02,1.74-12.14,11.9-2.81,12.46l9.52-3.24c1.53-.43,3.13-.8,4.8-1.1.21,8.37-.18,16.82-3.5,21.74-8.3,12.3,17.15,9.78,17.15,2.92l1.32-12.51c0-4.81,1.84-9.03,3.18-13.4,14.54.2,31.18,2.61,47.23,5.03.11,8.18-.55,16.37-.3,24.56.2,6.84,12.79,6.87,12.58,0-.22-7.52.28-15.11.31-22.67,7.63,1.12,14.95,2.11,21.63,2.7,23.09,2.05,28.85,2.52,43.9,2.31,15.4-.22,21.58.18,33.79-2.88,16.56-4.15,18.44-14.85,12.53-25.61-3.74-6.81-10.03-7.04-27.33-7.39-11.29-.22-19.98-.22-24.82.42-4.27.57-27.23,5.04-31.31,3.5-5.39-2.04-1.03-9.57.03-10.37,6.63-5.05,20.13-5,24.73-4.71,12.03.76,25.12-1.03,36.2-1.32,13.12-.35,24.3.75,36.68.93,15.7.23,42.94.35,54.38,9.98,1.74,1.47,2.81,2.92,3.27,3.83.24.49.45.98.65,1.47.16.38.29.77.4,1.16,0,.03.02.06.03.09-.1-.81.35,1.27,0,0v.03c.57,4.74-1.93,9.74-10.98,11.78-7.63,1.72-16.75,1.63-23.13-1.46-9.8-4.75-35.23-11.58-30.24.55,1.72,4.19,3.39,11.18,2.9,15.13-.68,5.5-1.34,11-2.1,16.5-.59,4.29,7.15,5.41,11.64,3.41,0-.01.02-.01.03-.01.42-.09.85-.22,1.29-.37,24.01-8.51,38.7-12.53,53.74-16.82,12.7-2.07,31.77-1.21,43.23-3.12,6.73-1.13,13.9-1.88,20.78-3.02-5.39,6.66-10.1,13.66-14.45,20.65-6.47,10.4,20.27,13.18,22.71,7.81,3.71-8.21,1.29-21.31,7.5-28.83,3.44-4.18,8.07-13.39,10.41-21.98,5.3,2.63,10.65,5.34,15.37,9.31,11.97,10.07,14.51,18.06,23.47,25.15,6.37,5.04,20.98,2.01,18.35-4.2-6.82-16.15-5.04-34.61,5.25-49.47,4.55-6.58-12.77-19.97-17.28-13.45ZM359.95,570.78c.26-4.16,2.61-9.64,5.7-13.04,3.28-3.62,8.54-3.29,13.22-3.11,6.04.24,13.55.73,18.84,3.5,5.34,2.8,6.26,9.13,7.05,13.97.17,1.07.32,2.14.43,3.21-14.93-2.11-30.57-4.03-45.24-4.53ZM666.95,578.7c-6.67,1.02-13.34,2.06-19.97,3.19-5.89,1-13.44,1.26-21.11,1.52,8.5-2.68,18.09-5.93,29.99-10.34,6.76-2.48,24.53-12.99,25.76-15.77-.09-.22-.19-.43-.3-.63.35.09.43.31.3.63,1.61,3.84.99,10.58-1.43,13.65-1.41,1.79-2.85,3.57-4.31,5.35-.04.04-.1.12-.18.21-.05.06-.12.13-.18.18-.3.22-1.85.97-3.29,1.22-2.26.38-3,.45-5.28.79Z"/>
  <path d="M557.22,580.23c-1.98.04-3.38-.13-1.34-1.05,2.48-1.12,1.78-.16,1.34,1.05Z"/>
  <path d="M603.09,560.52c-.1-.81.35,1.27,0,0h0Z"/>
  <path d="M681.62,557.3c-.09-.22-.19-.43-.3-.63.35.09.43.31.3.63Z"/>
  <path d="M669.02,528.49c-17.01-16.44-42.15-16.48-64.12-19.55-12.2-1.7-23.14-5.18-34.4-10.05-10.25-4.42-23.7-9.2-33.51-1.15-1.74,1.43-4.31.98-5.02-1.32-3.7-12.08-15.99-17.16-27.33-19.63-5.61-1.22-12.83-3.42-18.57-2.2-5.89,1.25-8.44,7.13-10.5,12.17-.81,1.98-3.3,3.11-5.02,1.33-11.61-12.12-28.96-18.41-45.65-15.52-3.97.68-8.51,1.8-10.87,5.39-2.46,3.73-2.26,9.02-2.16,13.3.23,9.5,4.16,22.1,15.88,21.35,3.86-.25,3.84,5.75,0,6-11.88.76-19.57-9.73-21.27-20.44-1.54-9.68-1.74-23.07,8.04-28.51,9.22-5.13,22.08-4.51,32-2.13,9.38,2.26,18.02,6.87,25.15,13.29,2.12-4.5,4.87-8.69,9.54-10.9,6.66-3.14,14.81-.9,21.65.41,13.39,2.54,27.5,7.94,33.45,20.72,8.39-4.82,18.53-4.24,27.76-1.12,6.23,2.11,12.08,5.16,18.21,7.49,6.63,2.52,13.53,4.09,20.53,5.2,24.37,3.85,51.49,3.3,70.46,21.63,2.78,2.69-1.47,6.92-4.25,4.24Z"/>
</svg>